<?xml version="1.0" encoding="utf-8"?>
<!-- Generator: Adobe Illustrator 16.0.0, SVG Export Plug-In . SVG Version: 6.00 Build 0)  -->
<!DOCTYPE svg PUBLIC "-//W3C//DTD SVG 1.1//EN" "http://www.w3.org/Graphics/SVG/1.1/DTD/svg11.dtd">
<svg version="1.1" id="Layer_1" xmlns="http://www.w3.org/2000/svg" xmlns:xlink="http://www.w3.org/1999/xlink" x="0px" y="0px"
	 width="288px" height="278.986px" viewBox="0 0 288 278.986" enable-background="new 0 0 288 278.986" xml:space="preserve">
<g>
	<g>
		<rect x="85.708" y="69.213" fill="#FFFFFF" width="139.381" height="163.368"/>
	</g>
	<g>
		<path fill="#1E77AB" d="M227.428,234.9H83.37V66.884h144.059V234.9z M88.007,230.263h134.783V71.532H88.007V230.263z"/>
	</g>
	<g>
		<g>
			<rect x="74.29" y="57.804" fill="#FFFFFF" width="139.421" height="163.379"/>
		</g>
		<g>
			<path fill="#1E77AB" d="M216.03,223.501H71.97V55.485h144.06V223.501z M76.628,218.844h134.743V60.133H76.628V218.844z"/>
		</g>
	</g>
	<g>
		<g>
			<rect x="62.911" y="46.405" fill="#FFFFFF" width="139.381" height="163.359"/>
		</g>
		<g>
			<path fill="#1E77AB" d="M204.63,212.103H60.572V44.086H204.63V212.103z M65.209,207.444h134.783V48.725H65.209V207.444z"/>
		</g>
	</g>
	<g>
		<polygon fill="#2078AC" points="158.307,77.34 158.307,46.405 93.825,46.405 62.911,46.405 62.911,77.34 62.911,102.958 
			62.911,133.892 62.911,209.765 93.825,209.765 93.825,133.892 132.601,133.892 132.601,102.958 93.825,102.958 93.825,77.34 		"/>
	</g>
</g>
</svg>
