<?xml version="1.0" encoding="utf-8"?>
<!-- Generator: Adobe Illustrator 16.0.0, SVG Export Plug-In . SVG Version: 6.00 Build 0)  -->
<!DOCTYPE svg PUBLIC "-//W3C//DTD SVG 1.1//EN" "http://www.w3.org/Graphics/SVG/1.1/DTD/svg11.dtd">
<svg version="1.1" id="Layer_1" xmlns="http://www.w3.org/2000/svg" xmlns:xlink="http://www.w3.org/1999/xlink" x="0px" y="0px"
	 width="960px" height="278.986px" viewBox="0 0 960 278.986" enable-background="new 0 0 960 278.986" xml:space="preserve">
<g>
	<g>
		<g>
			<rect x="108.159" y="69.213" fill="#FFFFFF" width="139.381" height="163.368"/>
		</g>
		<g>
			<path fill="#1E77AB" d="M249.879,234.9H105.82V66.884h144.059V234.9z M110.458,230.263h134.783V71.532H110.458V230.263z"/>
		</g>
		<g>
			<g>
				<rect x="96.74" y="57.804" fill="#FFFFFF" width="139.421" height="163.379"/>
			</g>
			<g>
				<path fill="#1E77AB" d="M238.48,223.501H94.421V55.485h144.06V223.501z M99.079,218.844h134.743V60.133H99.079V218.844z"/>
			</g>
		</g>
		<g>
			<g>
				<rect x="85.361" y="46.405" fill="#FFFFFF" width="139.381" height="163.359"/>
			</g>
			<g>
				<path fill="#1E77AB" d="M227.081,212.103H83.022V44.086h144.059V212.103z M87.66,207.444h134.783V48.725H87.66V207.444z"/>
			</g>
		</g>
		<g>
			<polygon fill="#2078AC" points="180.758,77.34 180.758,46.405 116.275,46.405 85.361,46.405 85.361,77.34 85.361,102.958 
				85.361,133.892 85.361,209.765 116.275,209.765 116.275,133.892 155.052,133.892 155.052,102.958 116.275,102.958 116.275,77.34 
							"/>
		</g>
	</g>
	<g>
		<polygon fill="#1E77AB" points="319.334,94.113 405.533,94.113 405.533,69.075 293.116,69.075 293.116,209.331 319.334,209.331 
			319.334,147.296 371.454,147.296 371.454,122.257 319.334,122.257 		"/>
		<path fill="#1E77AB" d="M474.674,66.245c-20.715,0-38.147,6.987-51.807,20.773c-13.639,13.768-20.557,31.445-20.557,52.533
			c0,21,6.898,38.648,20.498,52.406c13.62,13.797,31.072,20.793,51.865,20.793c20.872,0,38.402-6.996,52.101-20.773
			c13.679-13.777,20.616-31.406,20.616-52.426c0-21.019-6.957-38.678-20.675-52.483C512.979,73.252,495.467,66.245,474.674,66.245z
			 M474.674,187.478c-13.325,0-24.017-4.402-32.684-13.443c-8.746-9.08-12.991-20.361-12.991-34.482
			c0-14.11,4.245-25.411,12.991-34.55c8.687-9.07,19.378-13.482,32.684-13.482c13.384,0,24.095,4.393,32.742,13.423
			c8.707,9.1,12.932,20.42,12.932,34.609c0,14.121-4.245,25.402-12.99,34.482C498.69,183.075,487.999,187.478,474.674,187.478z"/>
		<polygon fill="#1E77AB" points="591.965,69.075 565.747,69.075 565.747,209.331 676.985,209.331 676.985,184.294 591.965,184.294 
					"/>
		<rect x="686.733" y="68.368" fill="#1E77AB" width="26.453" height="140.963"/>
		<path fill="#1E77AB" d="M856.302,87.068c-13.737-13.816-31.249-20.823-52.042-20.823c-20.715,0-38.146,6.987-51.806,20.773
			c-13.64,13.768-20.558,31.445-20.558,52.533c0,21,6.898,38.648,20.498,52.406c13.62,13.797,31.072,20.793,51.865,20.793
			c20.872,0,38.402-6.996,52.102-20.773c13.678-13.777,20.616-31.406,20.616-52.426C876.978,118.533,870.02,100.874,856.302,87.068z
			 M804.26,187.478c-13.325,0-24.017-4.402-32.684-13.443c-8.745-9.08-12.99-20.361-12.99-34.482c0-14.11,4.245-25.411,12.99-34.55
			c8.688-9.07,19.379-13.482,32.684-13.482c13.384,0,24.095,4.393,32.742,13.423c8.707,9.1,12.933,20.42,12.933,34.609
			c0,14.121-4.245,25.402-12.991,34.482C828.276,183.075,817.585,187.478,804.26,187.478z"/>
	</g>
</g>
</svg>
